# xmcd
#
# Track frame offsets: 
#        150
#        43920
#        119235
#        135162
#        149637
#        161422
#        174735
#        225740
#        240665
#        262052
#
# Disc length: 3734 seconds
#
# Revision: 2
# Processed by: cddbd v1.5.2PL0 Copyright (c) Steve Scherf et al.
# Submitted via: ExactAudioCopy v0.95b4
#
DISCID=950e940a
DTITLE=Stevie Ray Vaughan - Alpine Valley [CD2]
DYEAR=1990
DGENRE=Blues
TTITLE0=Voodoo Chile
TTITLE1=Sweet Home Chicago
TTITLE2=Pride and Joy
TTITLE3=Mary Had A Little Lamb
TTITLE4=Lovestruck Baby
TTITLE5=Testify
TTITLE6=Vodoo Chile
TTITLE7=Mary Had A Little Lamb
TTITLE8=Couldnt Stand The Weather
TTITLE9=Cold Shot
EXTD=
EXTT0=
EXTT1=
EXTT2=
EXTT3=
EXTT4=
EXTT5=
EXTT6=
EXTT7=
EXTT8=
EXTT9=
PLAYORDER=
